# xmcd CD database file
#
# Track frame offsets:
#	150
#	24838
#	53371
#	85559
#	127182
#
# Disc length: 2291 seconds
#
# Revision: 0
# Processed by: cddbd v1.5.2PL0 Copyright (c) Steve Scherf et al.
# Submitted via: CDex 1.51
#
DISCID=2d08f105
DTITLE=Horace Parlan - Pannonica (Enja-4076)
DYEAR=1900
DGENRE=Jazz
TTITLE0=There's No Greater Love
TTITLE1=Pannonica
TTITLE2=C Jam Blues
TTITLE3=Hi-Fly
TTITLE4=Who Cares
EXTD=
EXTT0=
EXTT1=
EXTT2=
EXTT3=
EXTT4=
PLAYORDER=
